<svg width="415" height="292" viewBox="0 0 415 292" fill="none" xmlns="http://www.w3.org/2000/svg">
<g clip-path="url(#clip0_39_51)">
<rect width="415" height="292" fill="white"/>
<path d="M379.204 260.301L379.827 247.172C386.321 243.918 393.564 242.2 400.928 242.166C390.794 249.932 392.06 264.903 385.189 275.346C383.02 278.588 380.099 281.331 376.645 283.371C373.191 285.412 369.291 286.697 365.235 287.133L356.754 292C355.59 285.919 355.847 279.674 357.506 273.695C359.165 267.716 362.188 262.145 366.365 257.367C368.737 254.707 371.456 252.339 374.459 250.317C376.491 255.337 379.204 260.301 379.204 260.301Z" fill="#F2F2F2"/>
<path d="M88.044 143.58C87.4836 143.101 87.0422 142.512 86.7508 141.856C86.4594 141.199 86.3251 140.491 86.3574 139.78C86.3897 139.07 86.5879 138.375 86.9378 137.744C87.2877 137.113 87.781 136.562 88.3828 136.129L82.5727 119.724L91.8273 122.055L95.9259 137.275C96.6348 138.271 96.9292 139.476 96.7535 140.662C96.5778 141.848 95.9442 142.932 94.9726 143.709C94.0011 144.486 92.7591 144.902 91.4821 144.879C90.2051 144.855 88.9818 144.393 88.044 143.58V143.58Z" fill="#A0616A"/>
<path d="M104.817 54.4516C106.353 55.2767 115.438 53.2322 117.212 53.8138C116.233 59.4154 121.553 57.3133 115.776 64.6697C109.999 72.026 98.3635 94.0823 95.7203 102.326C93.0771 110.569 95.6932 122.186 95.2974 126.093C95.1061 128.357 95.118 130.632 95.333 132.893C92.2118 132.856 89.1354 133.463 85.9654 133.076C82.5848 124.11 80.3119 111.347 78.7684 104.294C77.225 97.2404 77.1685 100.223 77.8764 96.6964C78.5843 93.1695 78.7557 95.7324 78.0121 92.3583C77.2685 88.9843 80.2758 84.745 83.0546 82.3278C84.2527 79.0978 85.801 76.0861 86.9871 72.8898C95.6791 65.7826 96.2506 61.677 104.817 54.4516Z" fill="#6C63FF"/>
<path d="M357.352 282.902H349.673L346.02 255.139H357.354L357.352 282.902Z" fill="#FFB6B6"/>
<path d="M359.311 289.88L334.549 289.879V289.585C334.55 287.189 335.565 284.892 337.372 283.198C339.18 281.504 341.631 280.552 344.187 280.552H344.188L348.711 277.336L357.15 280.552L359.311 280.552L359.311 289.88Z" fill="#2F2E41"/>
<path d="M321.675 282.902H313.996L310.343 255.139H321.677L321.675 282.902Z" fill="#FFB6B6"/>
<path d="M323.634 289.88L298.873 289.879V289.585C298.873 287.189 299.888 284.892 301.696 283.198C303.503 281.504 305.954 280.552 308.51 280.552H308.511L313.034 277.336L321.473 280.552L323.634 280.552L323.634 289.88Z" fill="#2F2E41"/>
<path d="M318.352 131.117L368.301 132.288C377.788 137.117 377.932 147.57 374.823 159.981C374.823 159.981 375.873 167.358 373.774 169.325C371.675 171.292 370.626 171.292 371.675 174.734C372.725 178.176 367.181 183.799 367.854 184.43C368.528 185.061 370.101 188.504 370.101 188.504L364.855 216.535C364.855 216.535 361.182 265.22 360.133 266.203C359.084 267.187 358.034 266.203 359.084 268.662C360.133 271.121 361.182 270.137 360.133 271.121C359.203 272.06 358.328 273.045 357.51 274.072H344.825C344.825 274.072 343.869 269.154 343.869 268.662C343.869 268.17 342.819 265.22 342.819 264.728C342.819 264.236 343.747 263.367 343.747 263.367C344.067 262.367 344.284 261.341 344.393 260.302C344.393 259.319 347.541 221.452 347.541 221.452L341.245 172.275L326.03 220.469C326.03 220.469 326.03 262.761 324.981 263.744C323.932 264.728 323.932 264.236 324.456 266.203C324.981 268.17 327.08 267.679 325.506 269.154C323.932 270.629 323.407 268.17 323.932 270.629L324.456 273.088L308.717 273.299C308.717 273.299 306.618 269.154 307.667 267.679C308.717 266.203 308.654 266.606 307.374 264.192C306.093 261.777 305.569 261.286 306.093 260.794C306.618 260.302 306.618 257.686 306.618 257.686L309.241 210.633C309.241 210.633 309.766 160.964 309.766 159.489C309.806 158.73 309.656 157.973 309.33 157.277V155.274L311.34 148.178L318.352 131.117Z" fill="#2F2E41"/>
<path d="M348.357 33.7651C356.928 33.7651 363.877 27.2523 363.877 19.2183C363.877 11.1843 356.928 4.67151 348.357 4.67151C339.786 4.67151 332.837 11.1843 332.837 19.2183C332.837 27.2523 339.786 33.7651 348.357 33.7651Z" fill="#FFB6B6"/>
<path d="M340.597 43.3795C337.254 45.2427 335.254 48.6659 334.105 52.1494C331.98 58.5985 330.7 65.2664 330.295 72.0057L329.083 92.1818L314.064 135.142C327.08 145.466 376.007 137.489 376.007 137.489C376.007 137.489 377.509 137.019 376.007 135.612C374.505 134.204 373.043 135.451 374.545 134.043C376.047 132.635 375.011 134.204 374.511 132.796C374.01 131.388 374.511 132.327 375.011 131.858C375.512 131.388 371.136 127.165 371.136 127.165L375.141 102.505L380.147 52.7645C374.139 45.7257 362.057 41.5764 362.057 41.5764L358.936 36.3093L343.326 37.4798L340.597 43.3795Z" fill="#3F3D56"/>
<path d="M338.469 10.6811C339.069 10.6855 339.667 10.759 340.248 10.9C341.394 11.1583 342.558 11.3412 343.731 11.4475C347.324 11.7644 350.7 13.2005 353.32 15.5267C355.94 17.8529 357.652 20.9348 358.184 24.2804C359.086 23.5434 361.138 22.1878 362.82 23.4477C362.846 23.4677 362.861 23.478 362.92 23.4517C364.037 22.955 366.02 16.8415 366.08 11.4587C366.112 8.60166 365.632 4.95339 363.167 3.79807L363.037 3.73721L363.003 3.60489C362.838 2.96222 360.998 1.8652 357.8 1.01136C351.988 -0.540313 343.495 -0.764635 338.617 3.68377C338.248 5.18343 336.875 5.59435 335.662 5.95812C334.318 6.36076 333.158 6.70823 332.975 8.25304C332.822 10.4514 332.834 12.6571 333.008 14.8541C333.464 13.5097 334.357 12.3331 335.563 11.4898C336.421 10.9486 337.435 10.6664 338.469 10.6811Z" fill="#2F2E41"/>
<path d="M309.582 91.0586L334.933 75.8406L322.165 59.9308L309.556 74.468L270.272 76.7264C269.239 75.7691 267.93 75.1142 266.507 74.8416C265.083 74.569 263.606 74.6906 262.255 75.1914C260.904 75.6922 259.738 76.5507 258.898 77.6622C258.059 78.7736 257.582 80.09 257.527 81.4508C257.472 82.8117 257.84 84.1581 258.587 85.3261C259.335 86.494 260.428 87.433 261.735 88.0284C263.041 88.6239 264.505 88.8501 265.946 88.6795C267.388 88.509 268.745 87.949 269.853 87.0678L309.582 91.0586Z" fill="#FFB6B6"/>
<path d="M358.463 54.5993C359.934 62.9457 332.148 78.8837 332.148 78.8837C332.148 76.9247 315.564 91.7141 314.815 90.0893C312.688 85.4717 311.192 74.5345 308.219 72.7839C306.519 71.7828 318.459 62.378 318.459 62.378C318.459 62.378 324.708 56.4766 332.91 49.0329C335.187 46.8882 338.005 45.3182 341.104 44.4693C344.202 43.6204 347.48 43.5201 350.63 44.1777C350.63 44.1777 356.992 46.2529 358.463 54.5993Z" fill="#3F3D56"/>
<path d="M330.215 150.43C330.225 159.362 328.63 168.231 325.494 176.666C325.351 177.058 325.201 177.444 325.051 177.836C318.633 194.174 306.695 208.1 291.054 217.492C289.986 218.135 288.906 218.75 287.807 219.347C275.311 226.137 261.166 229.808 246.724 230.01C246.249 230.016 245.775 230.021 245.3 230.021C244.688 230.021 244.083 230.016 243.477 230.004C229.015 229.734 214.87 225.99 202.394 219.13C201.295 218.528 200.212 217.901 199.147 217.252C181.782 206.701 169.121 190.574 163.538 171.896C157.955 153.219 159.833 133.273 168.821 115.802C169.021 115.409 169.227 115.023 169.439 114.631C176.518 101.464 187.359 90.397 200.753 82.6647C214.147 74.9324 229.569 70.8381 245.3 70.8381C261.031 70.8381 276.453 74.9324 289.847 82.6647C303.242 90.397 314.082 101.464 321.161 114.631C321.373 115.023 321.579 115.409 321.779 115.802C327.35 126.597 330.234 138.438 330.215 150.43Z" fill="#F2F2F2"/>
<path d="M303.941 176.666V177.836H311.546V176.666H303.941ZM288.731 176.666V177.836H296.336V176.666H288.731ZM273.522 176.666V177.836H281.127V176.666H273.522ZM258.312 176.666V177.836H265.917V176.666H258.312ZM243.102 176.666V177.836H250.707V176.666H243.102ZM227.893 176.666V177.836H235.498V176.666H227.893ZM212.683 176.666V177.836H220.288V176.666H212.683ZM197.48 176.666V177.836H205.078V176.666H197.48ZM182.27 176.666V177.836H189.875V176.666H182.27ZM167.06 176.666V177.836H174.665V176.666H167.06ZM325.494 176.666H319.151V177.836H325.051L325.494 176.666Z" fill="#E6E6E6"/>
<path d="M319.151 168.473V169.643H326.755V168.473H319.151ZM303.941 168.473V169.643H311.546V168.473H303.941ZM288.731 168.473V169.643H296.336V168.473H288.731ZM273.522 168.473V169.643H281.127V168.473H273.522ZM258.312 168.473V169.643H265.917V168.473H258.312ZM243.102 168.473V169.643H250.707V168.473H243.102ZM227.893 168.473V169.643H235.498V168.473H227.893ZM212.683 168.473V169.643H220.288V168.473H212.683ZM197.48 168.473V169.643H205.078V168.473H197.48ZM182.27 168.473V169.643H189.875V168.473H182.27ZM167.06 168.473V169.643H174.665V168.473H167.06Z" fill="#E6E6E6"/>
<path d="M319.151 151.501V152.671H326.755V151.501H319.151ZM303.941 151.501V152.671H311.546V151.501H303.941ZM288.731 151.501V152.671H296.336V151.501H288.731ZM273.522 151.501V152.671H281.127V151.501H273.522ZM258.312 151.501V152.671H265.917V151.501H258.312ZM243.102 151.501V152.671H250.707V151.501H243.102ZM227.893 151.501V152.671H235.498V151.501H227.893ZM212.683 151.501V152.671H220.288V151.501H212.683ZM197.48 151.501V152.671H205.078V151.501H197.48ZM182.27 151.501V152.671H189.875V151.501H182.27ZM167.06 151.501V152.671H174.665V151.501H167.06Z" fill="#E6E6E6"/>
<path d="M319.151 139.796V140.967H326.755V139.796H319.151ZM303.941 139.796V140.967H311.546V139.796H303.941ZM288.731 139.796V140.967H296.336V139.796H288.731ZM273.522 139.796V140.967H281.127V139.796H273.522ZM258.312 139.796V140.967H265.917V139.796H258.312ZM243.102 139.796V140.967H250.707V139.796H243.102ZM227.893 139.796V140.967H235.498V139.796H227.893ZM212.683 139.796V140.967H220.288V139.796H212.683ZM197.48 139.796V140.967H205.078V139.796H197.48ZM182.27 139.796V140.967H189.875V139.796H182.27ZM167.06 139.796V140.967H174.665V139.796H167.06Z" fill="#E6E6E6"/>
<path d="M321.161 114.631H319.151V115.802H321.779C321.579 115.409 321.373 115.023 321.161 114.631ZM303.941 114.631V115.802H311.546V114.631H303.941ZM288.731 114.631V115.802H296.336V114.631H288.731ZM273.522 114.631V115.802H281.127V114.631H273.522ZM258.312 114.631V115.802H265.917V114.631H258.312ZM243.102 114.631V115.802H250.707V114.631H243.102ZM227.893 114.631V115.802H235.498V114.631H227.893ZM212.683 114.631V115.802H220.288V114.631H212.683ZM197.48 114.631V115.802H205.078V114.631H197.48ZM182.27 114.631V115.802H189.875V114.631H182.27ZM169.439 114.631C169.227 115.023 169.021 115.409 168.821 115.802H174.665V114.631H169.439Z" fill="#E6E6E6"/>
<path d="M291.054 118.576V217.492C289.986 218.135 288.906 218.75 287.807 219.347V118.576H291.054Z" fill="#3F3D56"/>
<path d="M246.724 151.349V230.01C246.249 230.016 245.775 230.022 245.3 230.022C244.688 230.022 244.083 230.016 243.477 230.004V151.349H246.724Z" fill="#3F3D56"/>
<path d="M202.394 118.576V219.13C201.295 218.527 200.212 217.901 199.147 217.252V118.576H202.394Z" fill="#3F3D56"/>
<path d="M43.3023 253.207L42.0638 237.062C33.9511 233.26 24.971 231.373 15.9034 231.563C28.6603 240.805 27.6385 259.278 36.4733 271.92C39.2611 275.844 42.955 279.129 47.2813 281.532C51.6076 283.935 56.4554 285.395 61.4655 285.803L72.0823 291.528C73.2967 284.004 72.7566 276.323 70.499 269.014C68.2415 261.705 64.3202 254.941 59.0053 249.189C55.9896 245.99 52.556 243.159 48.7857 240.764C46.4651 247.009 43.3023 253.207 43.3023 253.207Z" fill="#F2F2F2"/>
<path d="M289.006 126.435C295.558 126.435 300.869 121.457 300.869 115.316C300.869 109.175 295.558 104.196 289.006 104.196C282.454 104.196 277.143 109.175 277.143 115.316C277.143 121.457 282.454 126.435 289.006 126.435Z" fill="#6C63FF"/>
<path d="M295.096 110.682C294.917 110.522 294.68 110.433 294.434 110.433C294.187 110.433 293.95 110.522 293.771 110.682C291.254 112.563 288.993 114.728 287.04 117.127C286.56 116.257 286.08 115.387 285.601 114.517C285.047 113.513 283.43 114.4 283.983 115.403C284.685 116.675 285.386 117.948 286.088 119.22C286.173 119.35 286.291 119.457 286.433 119.532C286.575 119.606 286.734 119.645 286.897 119.645C287.059 119.645 287.219 119.606 287.36 119.532C287.502 119.457 287.621 119.35 287.705 119.22C289.787 116.472 292.276 114.015 295.096 111.923C295.27 111.758 295.368 111.535 295.368 111.302C295.368 111.07 295.27 110.847 295.096 110.682Z" fill="white"/>
<path d="M245.3 159.208C251.852 159.208 257.163 154.23 257.163 148.089C257.163 141.948 251.852 136.969 245.3 136.969C238.748 136.969 233.437 141.948 233.437 148.089C233.437 154.23 238.748 159.208 245.3 159.208Z" fill="#6C63FF"/>
<path d="M251.39 143.455C251.212 143.295 250.974 143.206 250.728 143.206C250.481 143.206 250.244 143.295 250.066 143.455C247.548 145.336 245.287 147.501 243.334 149.9C242.854 149.03 242.374 148.16 241.895 147.29C241.341 146.286 239.724 147.173 240.277 148.176C240.979 149.449 241.681 150.721 242.382 151.993C242.467 152.123 242.586 152.23 242.727 152.305C242.869 152.379 243.028 152.419 243.191 152.419C243.353 152.419 243.513 152.379 243.654 152.305C243.796 152.23 243.915 152.123 243.999 151.993C246.081 149.245 248.57 146.788 251.39 144.696C251.564 144.531 251.662 144.308 251.662 144.075C251.662 143.843 251.564 143.62 251.39 143.455Z" fill="white"/>
<path d="M200.97 128.776C207.522 128.776 212.833 123.798 212.833 117.657C212.833 111.516 207.522 106.537 200.97 106.537C194.418 106.537 189.107 111.516 189.107 117.657C189.107 123.798 194.418 128.776 200.97 128.776Z" fill="#6C63FF"/>
<path d="M207.06 113.023C206.881 112.863 206.644 112.774 206.397 112.774C206.151 112.774 205.914 112.863 205.735 113.023C203.218 114.904 200.957 117.069 199.003 119.468C198.524 118.598 198.044 117.728 197.565 116.858C197.011 115.854 195.394 116.741 195.947 117.744C196.649 119.016 197.35 120.289 198.052 121.561C198.136 121.691 198.255 121.798 198.397 121.873C198.538 121.947 198.698 121.986 198.86 121.986C199.023 121.986 199.183 121.947 199.324 121.873C199.466 121.798 199.585 121.691 199.669 121.561C201.751 118.813 204.24 116.356 207.06 114.264C207.234 114.099 207.332 113.876 207.332 113.643C207.332 113.411 207.234 113.188 207.06 113.023Z" fill="white"/>
<path d="M371.097 109.749L378.906 82.4978L358.037 78.7948L359.159 97.5001L331.738 123.965C330.286 123.909 328.849 124.251 327.601 124.948C326.352 125.645 325.348 126.667 324.709 127.89C324.07 129.113 323.824 130.484 324.002 131.835C324.18 133.187 324.773 134.461 325.71 135.502C326.647 136.542 327.886 137.305 329.278 137.697C330.669 138.089 332.152 138.093 333.546 137.709C334.94 137.324 336.184 136.568 337.127 135.532C338.071 134.496 338.672 133.225 338.858 131.875L371.097 109.749Z" fill="#FFB6B6"/>
<path d="M381.042 51.9429C388.126 57.1848 379.033 86.5052 379.033 86.5052C377.626 85.0572 375.99 106.458 374.269 105.73C369.379 103.659 360.416 96.5167 356.96 97.0989C354.984 97.4318 357.055 82.9431 357.055 82.9431C357.055 82.9431 357.436 74.6357 358.151 63.9561C358.294 60.9333 359.25 57.9935 360.931 55.4103C362.612 52.827 364.962 50.6844 367.764 49.1819C367.764 49.1819 373.958 46.7011 381.042 51.9429Z" fill="#3F3D56"/>
<path d="M136.368 113.126L144.954 149.04L89.9355 145.832L104.897 110.561L136.368 113.126Z" fill="#A0616A"/>
<path d="M127.207 278.881L133.387 278.88L136.327 256.536H127.205L127.207 278.881Z" fill="#A0616A"/>
<path d="M125.114 276.023L134.883 275.476V279.4L144.172 285.412C144.63 285.709 144.976 286.136 145.158 286.63C145.34 287.124 145.348 287.659 145.182 288.158C145.016 288.657 144.685 289.093 144.235 289.403C143.786 289.713 143.243 289.88 142.686 289.88H131.055L129.05 285.999L128.267 289.88H123.882L125.114 276.023Z" fill="#2F2E41"/>
<path d="M68.7943 275.998L74.8345 277.226L82.7615 255.974L73.8474 254.162L68.7943 275.998Z" fill="#A0616A"/>
<path d="M67.3956 272.79L77.0669 274.197L76.1795 278.031L83.8967 285.753C84.2779 286.134 84.5191 286.62 84.585 287.139C84.651 287.658 84.5382 288.183 84.2632 288.638C83.9882 289.092 83.5654 289.452 83.0565 289.666C82.5475 289.879 81.9792 289.935 81.4343 289.824L70.0675 287.512L68.9861 283.321L67.3433 286.959L63.0576 286.087L67.3956 272.79Z" fill="#2F2E41"/>
<path d="M146.358 179.071C142.021 201.414 140.937 211.061 140.937 211.061C140.937 211.061 144.19 214.616 142.021 216.648C139.852 218.681 142.021 222.741 142.021 222.741L137.145 271.998L133.219 271.402L123.763 269.977L120.352 269.46L122.521 223.252C122.521 223.252 120.353 219.186 121.437 218.17C122.521 217.154 120.352 211.061 120.352 211.061L117.645 162.82L100.847 215.632C100.847 215.632 102.476 217.665 100.847 219.186C99.223 220.708 95.9761 228.328 95.9761 228.328L85.9869 261.09L85.1387 263.873L79.9291 262.958L74.2591 261.959L73.2171 261.777L71.3634 261.448L70.1701 261.238L69.7642 261.17L67.8015 260.823L68.3951 258.354L68.7041 257.053L77.1547 221.872L77.3485 221.06L77.5545 220.203C77.5545 220.203 76.4701 217.665 78.0936 216.137C78.5686 215.672 78.9155 215.105 79.1044 214.486C79.2933 213.866 79.3186 213.213 79.178 212.583C79.1248 212.53 79.0762 212.473 79.0326 212.413C78.8408 212.166 78.7085 211.883 78.6449 211.583C78.4995 210.948 78.6267 210.056 79.7232 209.028C80.0319 208.721 80.2911 208.373 80.4925 207.995C82.1402 205.071 82.9701 198.876 82.9701 198.876C82.9701 198.876 84.4361 149.812 89.2338 142.317C89.4883 141.925 94.5815 134.404 94.848 134.25C100.264 131.207 142.456 135.411 142.456 135.411C142.456 135.411 145.012 141.846 145.127 142.516C145.751 146.28 150.035 160.118 146.358 179.071Z" fill="#2F2E41"/>
<path d="M133.538 60.8892C133.538 60.8892 134.451 56.4472 125.678 48.2243C121.034 46.7732 112.987 47.6189 110.197 48.2243C97.2958 64.1863 99.6057 61.3699 96.2475 70.2884C95.3767 72.6011 94.9412 74.8231 95.3283 76.637C96.8764 83.8924 99.3898 121.136 98.8737 123.071C98.3577 125.006 94.7454 127.425 98.3577 127.425C101.97 127.425 148.554 126.66 147.522 125.209C146.49 123.758 133.538 60.8892 133.538 60.8892Z" fill="#6C63FF"/>
<path d="M188.863 119.907C188.156 120.164 187.397 120.272 186.64 120.224C185.883 120.176 185.147 119.974 184.482 119.63C183.818 119.286 183.242 118.811 182.796 118.236C182.349 117.661 182.042 117.002 181.897 116.304L163.639 113.873L169.987 107.144L186.352 110.484C187.619 110.333 188.901 110.623 189.955 111.298C191.01 111.974 191.763 112.989 192.073 114.15C192.382 115.312 192.227 116.539 191.635 117.6C191.044 118.661 190.057 119.482 188.863 119.907L188.863 119.907Z" fill="#A0616A"/>
<path d="M111.62 58.0299C113.092 57.1087 114.764 56.6762 116.11 55.4462C121.025 58.7631 121.386 53.3625 125.84 61.487C130.294 69.6116 146.179 89.2002 152.876 95.0901C159.573 100.98 171.835 103.959 175.391 106.031C177.468 107.2 179.646 108.203 181.902 109.03C180.476 111.633 179.686 114.485 177.904 116.973C167.834 115.816 154.63 112.039 147.206 110.193C139.781 108.346 142.605 109.722 139.551 107.557C136.498 105.392 139.022 106.39 135.468 105.511C131.914 104.633 129.204 100.221 128.133 96.812C125.581 94.3679 123.394 91.7271 120.869 89.308C117.952 78.8481 114.706 68.4372 111.62 58.0299Z" fill="#6C63FF"/>
<path d="M123.149 42.0334C131.401 42.0334 138.092 35.7626 138.092 28.0271C138.092 20.2917 131.401 14.0209 123.149 14.0209C114.896 14.0209 108.206 20.2917 108.206 28.0271C108.206 35.7626 114.896 42.0334 123.149 42.0334Z" fill="#A0616A"/>
<path d="M133.132 53.6299C132.424 52.6818 127.129 43.281 125.555 39.726C125.393 40.4958 125.29 41.2757 125.249 42.0593L125.233 42.3514L124.924 42.3889C124.458 42.4446 113.468 43.695 107.749 37.616C104.36 34.0152 103.591 28.6141 105.461 21.5597C105.121 21.4971 104.795 21.3795 104.498 21.212C104.004 20.8911 103.59 20.473 103.285 19.9868C102.981 19.5006 102.793 18.9579 102.735 18.3967L102.419 18.4763C92.2433 13.8352 101.01 0.258505 110.304 7.00858C111.119 6.83784 111.969 6.88362 112.758 7.14076C113.519 7.43094 114.182 7.90869 114.677 8.52337C115.171 9.13805 115.48 9.86676 115.568 10.6323C120.371 8.26473 126.726 8.64999 130.013 10.4263C131.389 11.1702 132.18 12.107 132.32 13.1521C136.202 13.3553 140.378 16.9001 140.378 21.9224V22.2721H140.005C138.443 22.3033 136.919 22.7321 135.598 23.5126C134.276 24.2931 133.205 25.3959 132.501 26.7029C131.546 28.3197 131.073 30.1477 131.133 31.9948C131.192 33.842 131.781 35.64 132.838 37.2C133.988 38.8547 134.774 40.7084 135.148 42.6519C135.522 44.5955 135.478 46.5896 135.017 48.5168L133.615 54.2754L133.132 53.6299Z" fill="#2F2E41"/>
<path d="M176.491 289.995C176.491 290.087 176.472 290.178 176.435 290.262C176.397 290.347 176.343 290.424 176.274 290.488C176.205 290.553 176.123 290.604 176.032 290.639C175.942 290.674 175.845 290.692 175.748 290.692H0.743032C0.545976 290.692 0.356989 290.618 0.217649 290.488C0.0783096 290.357 3.05176e-05 290.18 3.05176e-05 289.995C3.05176e-05 289.811 0.0783096 289.633 0.217649 289.503C0.356989 289.372 0.545976 289.299 0.743032 289.299H175.748C175.845 289.299 175.942 289.316 176.032 289.351C176.123 289.386 176.205 289.438 176.274 289.502C176.343 289.567 176.397 289.644 176.435 289.728C176.472 289.813 176.491 289.904 176.491 289.995Z" fill="#CCCCCC"/>
<path d="M415 289.995C415 290.087 414.981 290.178 414.944 290.262C414.907 290.347 414.852 290.424 414.783 290.488C414.714 290.553 414.632 290.604 414.542 290.639C414.451 290.674 414.355 290.692 414.257 290.692H239.252C239.055 290.692 238.866 290.618 238.727 290.488C238.588 290.357 238.509 290.18 238.509 289.995C238.509 289.811 238.588 289.633 238.727 289.503C238.866 289.372 239.055 289.299 239.252 289.299H414.257C414.355 289.299 414.451 289.316 414.542 289.351C414.632 289.386 414.714 289.438 414.783 289.502C414.852 289.567 414.907 289.644 414.944 289.728C414.981 289.813 415 289.904 415 289.995Z" fill="#CCCCCC"/>
<path d="M200.601 239.805C204.253 239.805 207.214 237.03 207.214 233.607C207.214 230.184 204.253 227.409 200.601 227.409C196.949 227.409 193.989 230.184 193.989 233.607C193.989 237.03 196.949 239.805 200.601 239.805Z" fill="#E6E6E6"/>
<path d="M244.932 246.242C248.583 246.242 251.544 243.467 251.544 240.044C251.544 236.621 248.583 233.846 244.932 233.846C241.28 233.846 238.319 236.621 238.319 240.044C238.319 243.467 241.28 246.242 244.932 246.242Z" fill="#E6E6E6"/>
<path d="M289.262 238.634C292.914 238.634 295.874 235.859 295.874 232.436C295.874 229.013 292.914 226.238 289.262 226.238C285.61 226.238 282.649 229.013 282.649 232.436C282.649 235.859 285.61 238.634 289.262 238.634Z" fill="#E6E6E6"/>
</g>
<defs>
<clipPath id="clip0_39_51">
<rect width="415" height="292" fill="white"/>
</clipPath>
</defs>
</svg>
