<svg width="1440" height="305" viewBox="0 0 1440 305" fill="none" xmlns="http://www.w3.org/2000/svg">
<path opacity="0.3" fill-rule="evenodd" clip-rule="evenodd" d="M-28 251.47L5.87692 230.068C43.5179 208.667 111.272 165.863 182.79 160.513C250.544 157.838 322.062 187.265 389.815 192.615C461.333 197.966 532.851 176.564 600.605 165.863C672.123 157.838 739.877 157.838 811.395 171.214C879.149 187.265 950.667 219.368 1022.18 219.368C1089.94 219.368 1161.46 187.265 1229.21 147.137C1300.73 104.333 1368.48 53.5043 1406.12 26.7521L1440 0V313H1406.12C1368.48 313 1300.73 313 1229.21 313C1161.46 313 1089.94 313 1022.18 313C950.667 313 879.149 313 811.395 313C739.877 313 672.123 313 600.605 313C532.851 313 461.333 313 389.815 313C322.062 313 250.544 313 182.79 313C111.272 313 43.5179 313 5.87692 313H-28V251.47Z" fill="#0099FF"/>
</svg>
